<mxfile host="app.diagrams.net" agent="Mozilla/5.0 (Windows NT 10.0; Win64; x64) AppleWebKit/537.36 (KHTML, like Gecko) Chrome/137.0.0.0 Safari/537.36" version="27.1.4">
  <diagram id="f106602c-feb2-e66a-4537-3a34d633f6aa" name="Page-1">
    <mxGraphModel dx="1042" dy="1362" grid="1" gridSize="10" guides="1" tooltips="1" connect="1" arrows="1" fold="1" page="1" pageScale="1" pageWidth="1169" pageHeight="827" background="none" math="0" shadow="0">
      <root>
        <mxCell id="0" />
        <mxCell id="1" parent="0" />
        <mxCell id="2" value="Business Mode for Latam" style="strokeColor=none;shadow=1;fontSize=14;align=left;spacingLeft=50;html=1;labelBackgroundColor=none;fillColor=#F2CC8F;fontColor=#393C56;" parent="1" vertex="1">
          <mxGeometry x="130" y="-710" width="660" height="40" as="geometry" />
        </mxCell>
        <mxCell id="zhJwvkAeSb5bMNdTfGIc-770" style="edgeStyle=orthogonalEdgeStyle;rounded=0;orthogonalLoop=1;jettySize=auto;html=1;exitX=0.5;exitY=1;exitDx=0;exitDy=0;strokeColor=#E07A5F;fontColor=#393C56;fillColor=#F2CC8F;" parent="1" source="zhJwvkAeSb5bMNdTfGIc-756" target="zhJwvkAeSb5bMNdTfGIc-762" edge="1">
          <mxGeometry relative="1" as="geometry" />
        </mxCell>
        <mxCell id="zhJwvkAeSb5bMNdTfGIc-756" value="&lt;h3 style=&quot;margin: 11px 0px 6px; padding: 0px; -webkit-font-smoothing: antialiased; scrollbar-color: rgba(184, 186, 193, 0.6) transparent; scrollbar-width: thin; line-height: 30px; font-size: 18px; -webkit-text-stroke: 0px; font-family: &amp;quot;PingFang SC&amp;quot;, Arial, sans-serif; font-weight: 600 !important; color: rgb(51, 51, 51); font-style: normal; font-variant-ligatures: normal; font-variant-caps: normal; letter-spacing: normal; orphans: 2; text-align: left; text-indent: 0px; text-transform: none; widows: 2; word-spacing: 0px; white-space: normal; background-color: rgb(255, 255, 255); text-decoration-thickness: initial; text-decoration-style: initial; text-decoration-color: initial;&quot;&gt;一、市场情报筑基阶段&lt;/h3&gt;" style="text;whiteSpace=wrap;html=1;fontColor=#393C56;" parent="1" vertex="1">
          <mxGeometry x="80" y="-610" width="210" height="70" as="geometry" />
        </mxCell>
        <mxCell id="zhJwvkAeSb5bMNdTfGIc-781" style="edgeStyle=orthogonalEdgeStyle;rounded=0;orthogonalLoop=1;jettySize=auto;html=1;exitX=0.5;exitY=1;exitDx=0;exitDy=0;strokeColor=#E07A5F;fontColor=#393C56;fillColor=#F2CC8F;" parent="1" source="zhJwvkAeSb5bMNdTfGIc-757" target="zhJwvkAeSb5bMNdTfGIc-777" edge="1">
          <mxGeometry relative="1" as="geometry" />
        </mxCell>
        <mxCell id="zhJwvkAeSb5bMNdTfGIc-757" value="&lt;h3 style=&quot;margin: 11px 0px 6px; padding: 0px; -webkit-font-smoothing: antialiased; scrollbar-color: rgba(184, 186, 193, 0.6) transparent; scrollbar-width: thin; line-height: 30px; font-size: 18px; -webkit-text-stroke: 0px; font-family: &amp;quot;PingFang SC&amp;quot;, Arial, sans-serif; font-weight: 600 !important; color: rgb(51, 51, 51); font-style: normal; font-variant-ligatures: normal; font-variant-caps: normal; letter-spacing: normal; orphans: 2; text-align: left; text-indent: 0px; text-transform: none; widows: 2; word-spacing: 0px; white-space: normal; background-color: rgb(255, 255, 255); text-decoration-thickness: initial; text-decoration-style: initial; text-decoration-color: initial;&quot;&gt;二、本地化破冰策略&lt;/h3&gt;" style="text;whiteSpace=wrap;html=1;fontColor=#393C56;" parent="1" vertex="1">
          <mxGeometry x="400" y="-610" width="200" height="70" as="geometry" />
        </mxCell>
        <mxCell id="zhJwvkAeSb5bMNdTfGIc-789" style="edgeStyle=orthogonalEdgeStyle;rounded=0;orthogonalLoop=1;jettySize=auto;html=1;exitX=0.5;exitY=1;exitDx=0;exitDy=0;entryX=0.5;entryY=0;entryDx=0;entryDy=0;strokeColor=#E07A5F;fontColor=#393C56;fillColor=#F2CC8F;" parent="1" source="zhJwvkAeSb5bMNdTfGIc-758" target="zhJwvkAeSb5bMNdTfGIc-785" edge="1">
          <mxGeometry relative="1" as="geometry" />
        </mxCell>
        <mxCell id="zhJwvkAeSb5bMNdTfGIc-758" value="&lt;h3 style=&quot;margin: 11px 0px 6px; padding: 0px; -webkit-font-smoothing: antialiased; scrollbar-color: rgba(184, 186, 193, 0.6) transparent; scrollbar-width: thin; line-height: 30px; font-size: 18px; -webkit-text-stroke: 0px; font-family: &amp;quot;PingFang SC&amp;quot;, Arial, sans-serif; font-weight: 600 !important; color: rgb(51, 51, 51); font-style: normal; font-variant-ligatures: normal; font-variant-caps: normal; letter-spacing: normal; orphans: 2; text-align: left; text-indent: 0px; text-transform: none; widows: 2; word-spacing: 0px; white-space: normal; background-color: rgb(255, 255, 255); text-decoration-thickness: initial; text-decoration-style: initial; text-decoration-color: initial;&quot;&gt;三、准入资质攻坚&lt;/h3&gt;" style="text;whiteSpace=wrap;html=1;fontColor=#393C56;" parent="1" vertex="1">
          <mxGeometry x="705" y="-610" width="180" height="70" as="geometry" />
        </mxCell>
        <mxCell id="zhJwvkAeSb5bMNdTfGIc-774" style="edgeStyle=orthogonalEdgeStyle;rounded=0;orthogonalLoop=1;jettySize=auto;html=1;exitX=0.5;exitY=1;exitDx=0;exitDy=0;entryX=0.5;entryY=0;entryDx=0;entryDy=0;strokeColor=#E07A5F;fontColor=#393C56;fillColor=#F2CC8F;" parent="1" source="zhJwvkAeSb5bMNdTfGIc-762" target="zhJwvkAeSb5bMNdTfGIc-764" edge="1">
          <mxGeometry relative="1" as="geometry" />
        </mxCell>
        <mxCell id="zhJwvkAeSb5bMNdTfGIc-762" value="" style="fillColor=#ffffff;strokeColor=#dddddd;shadow=1;strokeWidth=1;rounded=1;absoluteArcSize=1;arcSize=2;fontColor=#393C56;" parent="1" vertex="1">
          <mxGeometry x="100" y="-490" width="170" height="60" as="geometry" />
        </mxCell>
        <mxCell id="zhJwvkAeSb5bMNdTfGIc-763" value="&lt;b&gt;&lt;font style=&quot;font-size: 14px;&quot;&gt;政策与标准调研&lt;/font&gt;&lt;/b&gt;" style="editableCssRules=.*;html=1;fontColor=#999999;shape=image;verticalLabelPosition=middle;verticalAlign=middle;labelPosition=right;align=left;spacingLeft=20;part=1;points=[];imageAspect=0;image=data:image/svg+xml,PHN2ZyB4bWxucz0iaHR0cDovL3d3dy53My5vcmcvMjAwMC9zdmciIHhtbG5zOnY9Imh0dHBzOi8vdmVjdGEuaW8vbmFubyIgd2lkdGg9IjIwLjAwMTA0NTIyNzA1MDc4IiBoZWlnaHQ9IjIwLjAwMTA0NTIyNzA1MDc4IiBmaWxsLXJ1bGU9ImV2ZW5vZGQiIHZpZXdCb3g9IjAgMCAyMC4wMDEwNDUyMjcwNTA3OCAyMC4wMDEwNDUyMjcwNTA3OCI+JiN4YTsJPHN0eWxlIHR5cGU9InRleHQvY3NzIj4mI3hhOwkuc3Qwe2ZpbGw6I2FlY2JmYTt9JiN4YTsJLnN0MXtmaWxsOiM2NjlkZjY7fSYjeGE7CS5zdDJ7ZmlsbDojNDI4NWY0O30mI3hhOwk8L3N0eWxlPiYjeGE7CTxwYXRoIGNsYXNzPSJzdDAiIGQ9Ik00LjczIDguODN2Mi42M2E0LjkxIDQuOTEgMCAwIDAgMS43MSAxLjc0VjguODN6Ii8+JiN4YTsJPHBhdGggY2xhc3M9InN0MSIgZD0iTTcuODkgNi40MXY3LjUzQTcuNjIgNy42MiAwIDAgMCA5IDE0YTggOCAwIDAgMCAxIDBWNi40MXoiLz4mI3hhOwk8cGF0aCBjbGFzcz0ic3QwIiBkPSJNMTEuNjQgOS44NnYzLjI5YTUgNSAwIDAgMCAxLjctMS44MlY5Ljg2eiIvPiYjeGE7CTxwYXRoIGNsYXNzPSJzdDIiIGQ9Ik0xNS43NCAxNC4zMmwtMS40MiAxLjQyYS40Mi40MiAwIDAgMCAwIC42bDMuNTQgMy41NGEuNDIuNDIgMCAwIDAgLjU5IDBsMS40My0xLjQzYS40Mi40MiAwIDAgMCAwLS41OWwtMy41NC0zLjU0YS40Mi40MiAwIDAgMC0uNiAwIi8+JiN4YTsJPHBhdGggY2xhc3M9InN0MSIgZD0iTTkgMGE5IDkgMCAxIDAgMCAxOEE5IDkgMCAxIDAgOSAwbTAgMTUuNjlhNi42OCA2LjY4IDAgMCAxIC4wMDctMTMuMzYgNi42OCA2LjY4IDAgMCAxIDQuNzI3IDExLjQwM0E2LjY4IDYuNjggMCAwIDEgOSAxNS42OSIvPiYjeGE7PC9zdmc+;strokeColor=#E07A5F;fillColor=#F2CC8F;" parent="zhJwvkAeSb5bMNdTfGIc-762" vertex="1">
          <mxGeometry width="30" height="30" relative="1" as="geometry">
            <mxPoint x="15" y="15" as="offset" />
          </mxGeometry>
        </mxCell>
        <mxCell id="zhJwvkAeSb5bMNdTfGIc-764" value="" style="fillColor=#ffffff;strokeColor=#dddddd;shadow=1;strokeWidth=1;rounded=1;absoluteArcSize=1;arcSize=2;fontColor=#393C56;" parent="1" vertex="1">
          <mxGeometry x="100" y="-300" width="170" height="60" as="geometry" />
        </mxCell>
        <mxCell id="zhJwvkAeSb5bMNdTfGIc-765" value="&lt;font style=&quot;font-size: 14px;&quot;&gt;&lt;b&gt;竞争格局扫描&lt;/b&gt;&lt;/font&gt;" style="editableCssRules=.*;html=1;fontColor=#999999;shape=image;verticalLabelPosition=middle;verticalAlign=middle;labelPosition=right;align=left;spacingLeft=20;part=1;points=[];imageAspect=0;image=data:image/svg+xml,PHN2ZyB4bWxucz0iaHR0cDovL3d3dy53My5vcmcvMjAwMC9zdmciIHhtbG5zOnY9Imh0dHBzOi8vdmVjdGEuaW8vbmFubyIgd2lkdGg9IjIwLjAwMTA0NTIyNzA1MDc4IiBoZWlnaHQ9IjIwLjAwMTA0NTIyNzA1MDc4IiBmaWxsLXJ1bGU9ImV2ZW5vZGQiIHZpZXdCb3g9IjAgMCAyMC4wMDEwNDUyMjcwNTA3OCAyMC4wMDEwNDUyMjcwNTA3OCI+JiN4YTsJPHN0eWxlIHR5cGU9InRleHQvY3NzIj4mI3hhOwkuc3Qwe2ZpbGw6I2FlY2JmYTt9JiN4YTsJLnN0MXtmaWxsOiM2NjlkZjY7fSYjeGE7CS5zdDJ7ZmlsbDojNDI4NWY0O30mI3hhOwk8L3N0eWxlPiYjeGE7CTxwYXRoIGNsYXNzPSJzdDAiIGQ9Ik00LjczIDguODN2Mi42M2E0LjkxIDQuOTEgMCAwIDAgMS43MSAxLjc0VjguODN6Ii8+JiN4YTsJPHBhdGggY2xhc3M9InN0MSIgZD0iTTcuODkgNi40MXY3LjUzQTcuNjIgNy42MiAwIDAgMCA5IDE0YTggOCAwIDAgMCAxIDBWNi40MXoiLz4mI3hhOwk8cGF0aCBjbGFzcz0ic3QwIiBkPSJNMTEuNjQgOS44NnYzLjI5YTUgNSAwIDAgMCAxLjctMS44MlY5Ljg2eiIvPiYjeGE7CTxwYXRoIGNsYXNzPSJzdDIiIGQ9Ik0xNS43NCAxNC4zMmwtMS40MiAxLjQyYS40Mi40MiAwIDAgMCAwIC42bDMuNTQgMy41NGEuNDIuNDIgMCAwIDAgLjU5IDBsMS40My0xLjQzYS40Mi40MiAwIDAgMCAwLS41OWwtMy41NC0zLjU0YS40Mi40MiAwIDAgMC0uNiAwIi8+JiN4YTsJPHBhdGggY2xhc3M9InN0MSIgZD0iTTkgMGE5IDkgMCAxIDAgMCAxOEE5IDkgMCAxIDAgOSAwbTAgMTUuNjlhNi42OCA2LjY4IDAgMCAxIC4wMDctMTMuMzYgNi42OCA2LjY4IDAgMCAxIDQuNzI3IDExLjQwM0E2LjY4IDYuNjggMCAwIDEgOSAxNS42OSIvPiYjeGE7PC9zdmc+;strokeColor=#E07A5F;fillColor=#F2CC8F;" parent="zhJwvkAeSb5bMNdTfGIc-764" vertex="1">
          <mxGeometry width="30" height="30" relative="1" as="geometry">
            <mxPoint x="15" y="15" as="offset" />
          </mxGeometry>
        </mxCell>
        <mxCell id="zhJwvkAeSb5bMNdTfGIc-772" value="&lt;ul&gt;&lt;li&gt;&lt;span style=&quot;color: rgb(51, 51, 51); font-family: &amp;quot;PingFang SC&amp;quot;, Arial, sans-serif; font-style: normal; font-variant-ligatures: normal; font-variant-caps: normal; font-weight: 400; letter-spacing: normal; orphans: 2; text-align: left; text-indent: 0px; text-transform: none; widows: 2; word-spacing: 0px; -webkit-text-stroke-width: 0px; white-space: normal; background-color: rgb(255, 255, 255); text-decoration-thickness: initial; text-decoration-style: initial; text-decoration-color: initial; float: none; display: inline !important;&quot;&gt;&lt;font style=&quot;font-size: 13px;&quot;&gt;重点研究智利SEC、巴西INMETRO等认证要求，针对智能电表需符合NCh 4/2003能效标准，储能系统需通过UL 1973认证&lt;/font&gt;&lt;/span&gt;&lt;/li&gt;&lt;li&gt;&lt;span style=&quot;color: rgb(51, 51, 51); font-family: &amp;quot;PingFang SC&amp;quot;, Arial, sans-serif; font-style: normal; font-variant-ligatures: normal; font-variant-caps: normal; font-weight: 400; letter-spacing: normal; orphans: 2; text-align: left; text-indent: 0px; text-transform: none; widows: 2; word-spacing: 0px; -webkit-text-stroke-width: 0px; white-space: normal; background-color: rgb(255, 255, 255); text-decoration-thickness: initial; text-decoration-style: initial; text-decoration-color: initial; float: none; display: inline !important;&quot;&gt;&lt;font style=&quot;font-size: 13px;&quot;&gt;跟踪各国配网升级计划（如巴西&quot;Light for All&quot;光伏配储项目），锁定政策补贴区域&lt;/font&gt;&lt;/span&gt;&lt;/li&gt;&lt;/ul&gt;&lt;div&gt;&lt;span style=&quot;color: rgb(51, 51, 51); font-family: &amp;quot;PingFang SC&amp;quot;, Arial, sans-serif; font-style: normal; font-variant-ligatures: normal; font-variant-caps: normal; font-weight: 400; letter-spacing: normal; orphans: 2; text-align: left; text-indent: 0px; text-transform: none; widows: 2; word-spacing: 0px; -webkit-text-stroke-width: 0px; white-space: normal; background-color: rgb(255, 255, 255); text-decoration-thickness: initial; text-decoration-style: initial; text-decoration-color: initial; float: none; display: inline !important;&quot;&gt;&lt;font style=&quot;font-size: 13px;&quot;&gt;&lt;span style=&quot;margin: 0px; padding: 0px; -webkit-font-smoothing: antialiased; scrollbar-color: rgba(184, 186, 193, 0.6) transparent; scrollbar-width: thin;&quot;&gt;&lt;span style=&quot;margin: 0px; padding: 0px; -webkit-font-smoothing: antialiased; scrollbar-color: rgba(184, 186, 193, 0.6) transparent; scrollbar-width: thin;&quot;&gt;&lt;span style=&quot;margin: 0px 3px; padding: 0px; position: relative; display: inline-flex; line-height: 14px; -webkit-font-smoothing: antialiased; scrollbar-color: rgba(184, 186, 193, 0.6) transparent; scrollbar-width: thin; height: 12px; width: 14px;&quot; class=&quot;cos-tooltip cosd-citation&quot;&gt;&lt;/span&gt;&lt;/span&gt;&lt;/span&gt;&lt;/font&gt;&lt;/span&gt;&lt;/div&gt;&lt;div&gt;&lt;span style=&quot;color: rgb(51, 51, 51); font-family: &amp;quot;PingFang SC&amp;quot;, Arial, sans-serif; font-size: 16px; font-style: normal; font-variant-ligatures: normal; font-variant-caps: normal; font-weight: 400; letter-spacing: normal; orphans: 2; text-align: left; text-indent: 0px; text-transform: none; widows: 2; word-spacing: 0px; -webkit-text-stroke-width: 0px; white-space: normal; background-color: rgb(255, 255, 255); text-decoration-thickness: initial; text-decoration-style: initial; text-decoration-color: initial; float: none; display: inline !important;&quot;&gt;&lt;span style=&quot;margin: 0px; padding: 0px; -webkit-font-smoothing: antialiased; scrollbar-color: rgba(184, 186, 193, 0.6) transparent; scrollbar-width: thin;&quot;&gt;&lt;span style=&quot;margin: 0px; padding: 0px; -webkit-font-smoothing: antialiased; scrollbar-color: rgba(184, 186, 193, 0.6) transparent; scrollbar-width: thin;&quot;&gt;&lt;br&gt;&lt;/span&gt;&lt;/span&gt;&lt;/span&gt;&lt;/div&gt;" style="text;whiteSpace=wrap;html=1;fontColor=#393C56;" parent="1" vertex="1">
          <mxGeometry x="27.5" y="-420" width="315" height="60" as="geometry" />
        </mxCell>
        <mxCell id="zhJwvkAeSb5bMNdTfGIc-775" value="&lt;span style=&quot;color: rgb(51, 51, 51); font-family: &amp;quot;PingFang SC&amp;quot;, Arial, sans-serif; font-style: normal; font-variant-ligatures: normal; font-variant-caps: normal; font-weight: 400; letter-spacing: normal; orphans: 2; text-align: left; text-indent: 0px; text-transform: none; widows: 2; word-spacing: 0px; -webkit-text-stroke-width: 0px; white-space: normal; background-color: rgb(255, 255, 255); text-decoration-thickness: initial; text-decoration-style: initial; text-decoration-color: initial; float: none; display: inline !important;&quot;&gt;&lt;font&gt;通过招标平台（如智利Mercado Público）分析现有供应商短名单，识别中国同行（如xx在巴西市占率12%）的渠道策略&lt;/font&gt;&lt;/span&gt;" style="text;whiteSpace=wrap;html=1;fontColor=#393C56;" parent="1" vertex="1">
          <mxGeometry x="60" y="-230" width="260" height="60" as="geometry" />
        </mxCell>
        <mxCell id="zhJwvkAeSb5bMNdTfGIc-782" style="edgeStyle=orthogonalEdgeStyle;rounded=0;orthogonalLoop=1;jettySize=auto;html=1;entryX=0.5;entryY=0;entryDx=0;entryDy=0;strokeColor=#E07A5F;fontColor=#393C56;fillColor=#F2CC8F;" parent="1" source="zhJwvkAeSb5bMNdTfGIc-777" target="zhJwvkAeSb5bMNdTfGIc-779" edge="1">
          <mxGeometry relative="1" as="geometry" />
        </mxCell>
        <mxCell id="zhJwvkAeSb5bMNdTfGIc-777" value="" style="fillColor=#ffffff;strokeColor=#dddddd;shadow=1;strokeWidth=1;rounded=1;absoluteArcSize=1;arcSize=2;fontColor=#393C56;" parent="1" vertex="1">
          <mxGeometry x="415" y="-490" width="170" height="60" as="geometry" />
        </mxCell>
        <mxCell id="zhJwvkAeSb5bMNdTfGIc-778" value="&lt;font style=&quot;font-size: 14px; color: rgb(255, 51, 51);&quot;&gt;&lt;b&gt;代理合作优先&lt;/b&gt;&lt;/font&gt;" style="editableCssRules=.*;html=1;fontColor=#999999;shape=image;verticalLabelPosition=middle;verticalAlign=middle;labelPosition=right;align=left;spacingLeft=20;part=1;points=[];imageAspect=0;image=data:image/svg+xml,PHN2ZyB4bWxucz0iaHR0cDovL3d3dy53My5vcmcvMjAwMC9zdmciIHhtbG5zOnY9Imh0dHBzOi8vdmVjdGEuaW8vbmFubyIgd2lkdGg9IjIwLjAwMTA0NTIyNzA1MDc4IiBoZWlnaHQ9IjIwLjAwMTA0NTIyNzA1MDc4IiBmaWxsLXJ1bGU9ImV2ZW5vZGQiIHZpZXdCb3g9IjAgMCAyMC4wMDEwNDUyMjcwNTA3OCAyMC4wMDEwNDUyMjcwNTA3OCI+JiN4YTsJPHN0eWxlIHR5cGU9InRleHQvY3NzIj4mI3hhOwkuc3Qwe2ZpbGw6I2FlY2JmYTt9JiN4YTsJLnN0MXtmaWxsOiM2NjlkZjY7fSYjeGE7CS5zdDJ7ZmlsbDojNDI4NWY0O30mI3hhOwk8L3N0eWxlPiYjeGE7CTxwYXRoIGNsYXNzPSJzdDAiIGQ9Ik00LjczIDguODN2Mi42M2E0LjkxIDQuOTEgMCAwIDAgMS43MSAxLjc0VjguODN6Ii8+JiN4YTsJPHBhdGggY2xhc3M9InN0MSIgZD0iTTcuODkgNi40MXY3LjUzQTcuNjIgNy42MiAwIDAgMCA5IDE0YTggOCAwIDAgMCAxIDBWNi40MXoiLz4mI3hhOwk8cGF0aCBjbGFzcz0ic3QwIiBkPSJNMTEuNjQgOS44NnYzLjI5YTUgNSAwIDAgMCAxLjctMS44MlY5Ljg2eiIvPiYjeGE7CTxwYXRoIGNsYXNzPSJzdDIiIGQ9Ik0xNS43NCAxNC4zMmwtMS40MiAxLjQyYS40Mi40MiAwIDAgMCAwIC42bDMuNTQgMy41NGEuNDIuNDIgMCAwIDAgLjU5IDBsMS40My0xLjQzYS40Mi40MiAwIDAgMCAwLS41OWwtMy41NC0zLjU0YS40Mi40MiAwIDAgMC0uNiAwIi8+JiN4YTsJPHBhdGggY2xhc3M9InN0MSIgZD0iTTkgMGE5IDkgMCAxIDAgMCAxOEE5IDkgMCAxIDAgOSAwbTAgMTUuNjlhNi42OCA2LjY4IDAgMCAxIC4wMDctMTMuMzYgNi42OCA2LjY4IDAgMCAxIDQuNzI3IDExLjQwM0E2LjY4IDYuNjggMCAwIDEgOSAxNS42OSIvPiYjeGE7PC9zdmc+;strokeColor=#E07A5F;fillColor=#F2CC8F;" parent="zhJwvkAeSb5bMNdTfGIc-777" vertex="1">
          <mxGeometry width="30" height="30" relative="1" as="geometry">
            <mxPoint x="15" y="15" as="offset" />
          </mxGeometry>
        </mxCell>
        <mxCell id="zhJwvkAeSb5bMNdTfGIc-779" value="" style="fillColor=#ffffff;strokeColor=#dddddd;shadow=1;strokeWidth=1;rounded=1;absoluteArcSize=1;arcSize=2;fontColor=#393C56;" parent="1" vertex="1">
          <mxGeometry x="415" y="-300" width="170" height="60" as="geometry" />
        </mxCell>
        <mxCell id="zhJwvkAeSb5bMNdTfGIc-780" value="&lt;b&gt;&lt;font style=&quot;font-size: 14px; color: rgb(255, 51, 51);&quot;&gt;关键人渗透计划&lt;/font&gt;&lt;/b&gt;" style="editableCssRules=.*;html=1;fontColor=#999999;shape=image;verticalLabelPosition=middle;verticalAlign=middle;labelPosition=right;align=left;spacingLeft=20;part=1;points=[];imageAspect=0;image=data:image/svg+xml,PHN2ZyB4bWxucz0iaHR0cDovL3d3dy53My5vcmcvMjAwMC9zdmciIHhtbG5zOnY9Imh0dHBzOi8vdmVjdGEuaW8vbmFubyIgd2lkdGg9IjIwLjAwMTA0NTIyNzA1MDc4IiBoZWlnaHQ9IjIwLjAwMTA0NTIyNzA1MDc4IiBmaWxsLXJ1bGU9ImV2ZW5vZGQiIHZpZXdCb3g9IjAgMCAyMC4wMDEwNDUyMjcwNTA3OCAyMC4wMDEwNDUyMjcwNTA3OCI+JiN4YTsJPHN0eWxlIHR5cGU9InRleHQvY3NzIj4mI3hhOwkuc3Qwe2ZpbGw6I2FlY2JmYTt9JiN4YTsJLnN0MXtmaWxsOiM2NjlkZjY7fSYjeGE7CS5zdDJ7ZmlsbDojNDI4NWY0O30mI3hhOwk8L3N0eWxlPiYjeGE7CTxwYXRoIGNsYXNzPSJzdDAiIGQ9Ik00LjczIDguODN2Mi42M2E0LjkxIDQuOTEgMCAwIDAgMS43MSAxLjc0VjguODN6Ii8+JiN4YTsJPHBhdGggY2xhc3M9InN0MSIgZD0iTTcuODkgNi40MXY3LjUzQTcuNjIgNy42MiAwIDAgMCA5IDE0YTggOCAwIDAgMCAxIDBWNi40MXoiLz4mI3hhOwk8cGF0aCBjbGFzcz0ic3QwIiBkPSJNMTEuNjQgOS44NnYzLjI5YTUgNSAwIDAgMCAxLjctMS44MlY5Ljg2eiIvPiYjeGE7CTxwYXRoIGNsYXNzPSJzdDIiIGQ9Ik0xNS43NCAxNC4zMmwtMS40MiAxLjQyYS40Mi40MiAwIDAgMCAwIC42bDMuNTQgMy41NGEuNDIuNDIgMCAwIDAgLjU5IDBsMS40My0xLjQzYS40Mi40MiAwIDAgMCAwLS41OWwtMy41NC0zLjU0YS40Mi40MiAwIDAgMC0uNiAwIi8+JiN4YTsJPHBhdGggY2xhc3M9InN0MSIgZD0iTTkgMGE5IDkgMCAxIDAgMCAxOEE5IDkgMCAxIDAgOSAwbTAgMTUuNjlhNi42OCA2LjY4IDAgMCAxIC4wMDctMTMuMzYgNi42OCA2LjY4IDAgMCAxIDQuNzI3IDExLjQwM0E2LjY4IDYuNjggMCAwIDEgOSAxNS42OSIvPiYjeGE7PC9zdmc+;strokeColor=#E07A5F;fillColor=#F2CC8F;" parent="zhJwvkAeSb5bMNdTfGIc-779" vertex="1">
          <mxGeometry width="30" height="30" relative="1" as="geometry">
            <mxPoint x="15" y="15" as="offset" />
          </mxGeometry>
        </mxCell>
        <mxCell id="zhJwvkAeSb5bMNdTfGIc-783" value="&lt;ul&gt;&lt;li&gt;&lt;span style=&quot;background-color: light-dark(rgb(255, 255, 255), rgb(18, 18, 18)); color: light-dark(rgb(51, 51, 51), rgb(193, 193, 193)); font-family: &amp;quot;PingFang SC&amp;quot;, Arial, sans-serif;&quot;&gt;筛选拥有电力公司关系的本土代理商，签署阶梯返点协议（如首年3%销售额返点，达标后升至5%）。&lt;/span&gt;&lt;/li&gt;&lt;li&gt;&lt;font style=&quot;background-color: light-dark(rgb(255, 255, 255), rgb(18, 18, 18)); color: light-dark(rgb(51, 51, 51), rgb(193, 193, 193)); font-family: &amp;quot;PingFang SC&amp;quot;, Arial, sans-serif;&quot;&gt;提供西语/葡语技术培训，授权其处理SEC年度验厂等事务&lt;/font&gt;&lt;/li&gt;&lt;/ul&gt;" style="text;whiteSpace=wrap;html=1;fontColor=#393C56;" parent="1" vertex="1">
          <mxGeometry x="385" y="-420" width="240" height="110" as="geometry" />
        </mxCell>
        <mxCell id="zhJwvkAeSb5bMNdTfGIc-784" value="&lt;ul&gt;&lt;li&gt;&lt;span style=&quot;background-color: light-dark(rgb(255, 255, 255), rgb(18, 18, 18)); color: light-dark(rgb(51, 51, 51), rgb(193, 193, 193)); font-family: &amp;quot;PingFang SC&amp;quot;, Arial, sans-serif;&quot;&gt;聘请退休电力公司采购主管（月咨询费约2000美元）指导投标策略，引荐区域配电部门负责人。&lt;/span&gt;&lt;/li&gt;&lt;li&gt;&lt;span style=&quot;background-color: light-dark(rgb(255, 255, 255), rgb(18, 18, 18)); color: light-dark(rgb(51, 51, 51), rgb(193, 193, 193)); font-family: &amp;quot;PingFang SC&amp;quot;, Arial, sans-serif;&quot;&gt;针对EPC项目经理开展&quot;技术沙龙&quot;，每季度组织中国工厂考察（包机酒）&lt;/span&gt;&lt;/li&gt;&lt;/ul&gt;" style="text;whiteSpace=wrap;html=1;fontColor=#393C56;" parent="1" vertex="1">
          <mxGeometry x="375" y="-240" width="250" height="120" as="geometry" />
        </mxCell>
        <mxCell id="zhJwvkAeSb5bMNdTfGIc-790" style="edgeStyle=orthogonalEdgeStyle;rounded=0;orthogonalLoop=1;jettySize=auto;html=1;exitX=0.5;exitY=1;exitDx=0;exitDy=0;strokeColor=#E07A5F;fontColor=#393C56;fillColor=#F2CC8F;" parent="1" source="zhJwvkAeSb5bMNdTfGIc-785" target="zhJwvkAeSb5bMNdTfGIc-787" edge="1">
          <mxGeometry relative="1" as="geometry" />
        </mxCell>
        <mxCell id="zhJwvkAeSb5bMNdTfGIc-785" value="" style="fillColor=#ffffff;strokeColor=#dddddd;shadow=1;strokeWidth=1;rounded=1;absoluteArcSize=1;arcSize=2;fontColor=#393C56;" parent="1" vertex="1">
          <mxGeometry x="710" y="-490" width="170" height="60" as="geometry" />
        </mxCell>
        <mxCell id="zhJwvkAeSb5bMNdTfGIc-786" value="&lt;font style=&quot;font-size: 14px;&quot;&gt;&lt;b&gt;认证快速通道&lt;/b&gt;&lt;/font&gt;" style="editableCssRules=.*;html=1;fontColor=#999999;shape=image;verticalLabelPosition=middle;verticalAlign=middle;labelPosition=right;align=left;spacingLeft=20;part=1;points=[];imageAspect=0;image=data:image/svg+xml,PHN2ZyB4bWxucz0iaHR0cDovL3d3dy53My5vcmcvMjAwMC9zdmciIHhtbG5zOnY9Imh0dHBzOi8vdmVjdGEuaW8vbmFubyIgd2lkdGg9IjIwLjAwMTA0NTIyNzA1MDc4IiBoZWlnaHQ9IjIwLjAwMTA0NTIyNzA1MDc4IiBmaWxsLXJ1bGU9ImV2ZW5vZGQiIHZpZXdCb3g9IjAgMCAyMC4wMDEwNDUyMjcwNTA3OCAyMC4wMDEwNDUyMjcwNTA3OCI+JiN4YTsJPHN0eWxlIHR5cGU9InRleHQvY3NzIj4mI3hhOwkuc3Qwe2ZpbGw6I2FlY2JmYTt9JiN4YTsJLnN0MXtmaWxsOiM2NjlkZjY7fSYjeGE7CS5zdDJ7ZmlsbDojNDI4NWY0O30mI3hhOwk8L3N0eWxlPiYjeGE7CTxwYXRoIGNsYXNzPSJzdDAiIGQ9Ik00LjczIDguODN2Mi42M2E0LjkxIDQuOTEgMCAwIDAgMS43MSAxLjc0VjguODN6Ii8+JiN4YTsJPHBhdGggY2xhc3M9InN0MSIgZD0iTTcuODkgNi40MXY3LjUzQTcuNjIgNy42MiAwIDAgMCA5IDE0YTggOCAwIDAgMCAxIDBWNi40MXoiLz4mI3hhOwk8cGF0aCBjbGFzcz0ic3QwIiBkPSJNMTEuNjQgOS44NnYzLjI5YTUgNSAwIDAgMCAxLjctMS44MlY5Ljg2eiIvPiYjeGE7CTxwYXRoIGNsYXNzPSJzdDIiIGQ9Ik0xNS43NCAxNC4zMmwtMS40MiAxLjQyYS40Mi40MiAwIDAgMCAwIC42bDMuNTQgMy41NGEuNDIuNDIgMCAwIDAgLjU5IDBsMS40My0xLjQzYS40Mi40MiAwIDAgMCAwLS41OWwtMy41NC0zLjU0YS40Mi40MiAwIDAgMC0uNiAwIi8+JiN4YTsJPHBhdGggY2xhc3M9InN0MSIgZD0iTTkgMGE5IDkgMCAxIDAgMCAxOEE5IDkgMCAxIDAgOSAwbTAgMTUuNjlhNi42OCA2LjY4IDAgMCAxIC4wMDctMTMuMzYgNi42OCA2LjY4IDAgMCAxIDQuNzI3IDExLjQwM0E2LjY4IDYuNjggMCAwIDEgOSAxNS42OSIvPiYjeGE7PC9zdmc+;strokeColor=#E07A5F;fillColor=#F2CC8F;" parent="zhJwvkAeSb5bMNdTfGIc-785" vertex="1">
          <mxGeometry width="30" height="30" relative="1" as="geometry">
            <mxPoint x="15" y="15" as="offset" />
          </mxGeometry>
        </mxCell>
        <mxCell id="zhJwvkAeSb5bMNdTfGIc-787" value="" style="fillColor=#ffffff;strokeColor=#dddddd;shadow=1;strokeWidth=1;rounded=1;absoluteArcSize=1;arcSize=2;fontColor=#393C56;" parent="1" vertex="1">
          <mxGeometry x="710" y="-300" width="170" height="60" as="geometry" />
        </mxCell>
        <mxCell id="zhJwvkAeSb5bMNdTfGIc-788" value="&lt;font style=&quot;font-size: 14px;&quot;&gt;&lt;b&gt;短名单突围战术&lt;/b&gt;&lt;/font&gt;" style="editableCssRules=.*;html=1;fontColor=#999999;shape=image;verticalLabelPosition=middle;verticalAlign=middle;labelPosition=right;align=left;spacingLeft=20;part=1;points=[];imageAspect=0;image=data:image/svg+xml,PHN2ZyB4bWxucz0iaHR0cDovL3d3dy53My5vcmcvMjAwMC9zdmciIHhtbG5zOnY9Imh0dHBzOi8vdmVjdGEuaW8vbmFubyIgd2lkdGg9IjIwLjAwMTA0NTIyNzA1MDc4IiBoZWlnaHQ9IjIwLjAwMTA0NTIyNzA1MDc4IiBmaWxsLXJ1bGU9ImV2ZW5vZGQiIHZpZXdCb3g9IjAgMCAyMC4wMDEwNDUyMjcwNTA3OCAyMC4wMDEwNDUyMjcwNTA3OCI+JiN4YTsJPHN0eWxlIHR5cGU9InRleHQvY3NzIj4mI3hhOwkuc3Qwe2ZpbGw6I2FlY2JmYTt9JiN4YTsJLnN0MXtmaWxsOiM2NjlkZjY7fSYjeGE7CS5zdDJ7ZmlsbDojNDI4NWY0O30mI3hhOwk8L3N0eWxlPiYjeGE7CTxwYXRoIGNsYXNzPSJzdDAiIGQ9Ik00LjczIDguODN2Mi42M2E0LjkxIDQuOTEgMCAwIDAgMS43MSAxLjc0VjguODN6Ii8+JiN4YTsJPHBhdGggY2xhc3M9InN0MSIgZD0iTTcuODkgNi40MXY3LjUzQTcuNjIgNy42MiAwIDAgMCA5IDE0YTggOCAwIDAgMCAxIDBWNi40MXoiLz4mI3hhOwk8cGF0aCBjbGFzcz0ic3QwIiBkPSJNMTEuNjQgOS44NnYzLjI5YTUgNSAwIDAgMCAxLjctMS44MlY5Ljg2eiIvPiYjeGE7CTxwYXRoIGNsYXNzPSJzdDIiIGQ9Ik0xNS43NCAxNC4zMmwtMS40MiAxLjQyYS40Mi40MiAwIDAgMCAwIC42bDMuNTQgMy41NGEuNDIuNDIgMCAwIDAgLjU5IDBsMS40My0xLjQzYS40Mi40MiAwIDAgMCAwLS41OWwtMy41NC0zLjU0YS40Mi40MiAwIDAgMC0uNiAwIi8+JiN4YTsJPHBhdGggY2xhc3M9InN0MSIgZD0iTTkgMGE5IDkgMCAxIDAgMCAxOEE5IDkgMCAxIDAgOSAwbTAgMTUuNjlhNi42OCA2LjY4IDAgMCAxIC4wMDctMTMuMzYgNi42OCA2LjY4IDAgMCAxIDQuNzI3IDExLjQwM0E2LjY4IDYuNjggMCAwIDEgOSAxNS42OSIvPiYjeGE7PC9zdmc+;strokeColor=#E07A5F;fillColor=#F2CC8F;" parent="zhJwvkAeSb5bMNdTfGIc-787" vertex="1">
          <mxGeometry width="30" height="30" relative="1" as="geometry">
            <mxPoint x="15" y="15" as="offset" />
          </mxGeometry>
        </mxCell>
        <mxCell id="zhJwvkAeSb5bMNdTfGIc-791" value="&lt;div&gt;&lt;ul&gt;&lt;li&gt;&lt;span style=&quot;background-color: light-dark(rgb(255, 255, 255), rgb(18, 18, 18)); color: light-dark(rgb(51, 51, 51), rgb(193, 193, 193)); font-family: &amp;quot;PingFang SC&amp;quot;, Arial, sans-serif;&quot;&gt;与TÜV南德合作预测试，缩短智利SEC认证周期至4个月（常规需6-8个月)&lt;/span&gt;&lt;/li&gt;&lt;li&gt;&lt;span style=&quot;background-color: light-dark(rgb(255, 255, 255), rgb(18, 18, 18)); color: light-dark(rgb(51, 51, 51), rgb(193, 193, 193)); font-family: &amp;quot;PingFang SC&amp;quot;, Arial, sans-serif;&quot;&gt;通过中信保承保90%付款风险，解决本地银行保函开具难题&lt;/span&gt;&lt;/li&gt;&lt;/ul&gt;&lt;/div&gt;&lt;ol style=&quot;margin: 3px 0px 0px; padding: 0px; -webkit-font-smoothing: antialiased; scrollbar-color: rgba(184, 186, 193, 0.6) transparent; scrollbar-width: thin; counter-reset: listCounter 0; list-style: none; color: rgb(51, 51, 51); font-family: &amp;quot;PingFang SC&amp;quot;, Arial, sans-serif; font-style: normal; font-variant-ligatures: normal; font-variant-caps: normal; font-weight: 400; letter-spacing: normal; orphans: 2; text-align: left; text-indent: 0px; text-transform: none; widows: 2; word-spacing: 0px; -webkit-text-stroke-width: 0px; white-space: normal; background-color: rgb(255, 255, 255); text-decoration-thickness: initial; text-decoration-style: initial; text-decoration-color: initial;&quot;&gt;&lt;li style=&quot;margin: 6px 0px; padding: 0px 0px 0px 21px; -webkit-font-smoothing: antialiased; scrollbar-color: rgba(184, 186, 193, 0.6) transparent; scrollbar-width: thin; line-height: 28px; min-height: 28px; position: relative;&quot;&gt;&lt;p class=&quot;marklang-paragraph&quot; style=&quot;margin: 7px 0px; padding: 0px; -webkit-font-smoothing: antialiased; scrollbar-color: rgba(184, 186, 193, 0.6) transparent; scrollbar-width: thin; line-height: 29px; -webkit-text-stroke: 0px; color: rgb(51, 51, 51); font-family: &amp;quot;PingFang SC&amp;quot;, Arial, sans-serif; font-weight: 400;&quot;&gt;&lt;br&gt;&lt;/p&gt;&lt;/li&gt;&lt;/ol&gt;" style="text;whiteSpace=wrap;html=1;fontColor=#393C56;" parent="1" vertex="1">
          <mxGeometry x="680" y="-430" width="260" height="90" as="geometry" />
        </mxCell>
        <mxCell id="zhJwvkAeSb5bMNdTfGIc-792" value="&lt;ul style=&quot;forced-color-adjust: none; color: rgb(57, 60, 86); font-family: Helvetica; font-size: 12px; font-style: normal; font-variant-ligatures: normal; font-variant-caps: normal; font-weight: 400; letter-spacing: normal; orphans: 2; text-align: left; text-indent: 0px; text-transform: none; widows: 2; word-spacing: 0px; -webkit-text-stroke-width: 0px; white-space: normal; text-decoration-thickness: initial; text-decoration-style: initial; text-decoration-color: initial;&quot;&gt;&lt;li style=&quot;forced-color-adjust: none;&quot;&gt;&lt;span style=&quot;forced-color-adjust: none; color: light-dark(rgb(51, 51, 51), rgb(193, 193, 193)); font-family: &amp;quot;PingFang SC&amp;quot;, Arial, sans-serif;&quot;&gt;联合本地EPC商（如墨西哥ICA）以联合体投标，承诺5年备件供应&lt;/span&gt;&lt;/li&gt;&lt;li style=&quot;forced-color-adjust: none;&quot;&gt;&lt;span style=&quot;forced-color-adjust: none; color: light-dark(rgb(51, 51, 51), rgb(193, 193, 193));&quot;&gt;在圣地亚哥/圣保罗设保税仓，实现72小时应急交付&lt;/span&gt;&lt;/li&gt;&lt;/ul&gt;" style="text;whiteSpace=wrap;html=1;fontColor=#393C56;" parent="1" vertex="1">
          <mxGeometry x="672.5" y="-240" width="255" height="100" as="geometry" />
        </mxCell>
        <mxCell id="3K_Mu4hXgfkXYXGYBe7w-14" style="edgeStyle=orthogonalEdgeStyle;rounded=0;orthogonalLoop=1;jettySize=auto;html=1;exitX=0.5;exitY=0;exitDx=0;exitDy=0;entryX=0.5;entryY=0;entryDx=0;entryDy=0;" edge="1" parent="1" source="3K_Mu4hXgfkXYXGYBe7w-2" target="3K_Mu4hXgfkXYXGYBe7w-5">
          <mxGeometry relative="1" as="geometry" />
        </mxCell>
        <mxCell id="3K_Mu4hXgfkXYXGYBe7w-15" style="edgeStyle=orthogonalEdgeStyle;rounded=0;orthogonalLoop=1;jettySize=auto;html=1;exitX=1;exitY=0.5;exitDx=0;exitDy=0;" edge="1" parent="1" source="3K_Mu4hXgfkXYXGYBe7w-2" target="3K_Mu4hXgfkXYXGYBe7w-7">
          <mxGeometry relative="1" as="geometry" />
        </mxCell>
        <mxCell id="3K_Mu4hXgfkXYXGYBe7w-2" value="销售" style="rounded=0;whiteSpace=wrap;html=1;" vertex="1" parent="1">
          <mxGeometry x="160" y="-20" width="120" height="60" as="geometry" />
        </mxCell>
        <mxCell id="3K_Mu4hXgfkXYXGYBe7w-13" style="edgeStyle=orthogonalEdgeStyle;rounded=0;orthogonalLoop=1;jettySize=auto;html=1;exitX=0.5;exitY=1;exitDx=0;exitDy=0;entryX=0.5;entryY=1;entryDx=0;entryDy=0;" edge="1" parent="1" source="3K_Mu4hXgfkXYXGYBe7w-5" target="3K_Mu4hXgfkXYXGYBe7w-2">
          <mxGeometry relative="1" as="geometry" />
        </mxCell>
        <mxCell id="3K_Mu4hXgfkXYXGYBe7w-16" style="edgeStyle=orthogonalEdgeStyle;rounded=0;orthogonalLoop=1;jettySize=auto;html=1;exitX=0;exitY=0.5;exitDx=0;exitDy=0;entryX=1;entryY=0.5;entryDx=0;entryDy=0;" edge="1" parent="1" source="3K_Mu4hXgfkXYXGYBe7w-5" target="3K_Mu4hXgfkXYXGYBe7w-4">
          <mxGeometry relative="1" as="geometry" />
        </mxCell>
        <mxCell id="3K_Mu4hXgfkXYXGYBe7w-5" value="客户" style="rounded=0;whiteSpace=wrap;html=1;" vertex="1" parent="1">
          <mxGeometry x="660" y="-20" width="120" height="60" as="geometry" />
        </mxCell>
        <mxCell id="3K_Mu4hXgfkXYXGYBe7w-10" value="" style="group" vertex="1" connectable="0" parent="1">
          <mxGeometry x="360" y="-30" width="232.5" height="80" as="geometry" />
        </mxCell>
        <mxCell id="3K_Mu4hXgfkXYXGYBe7w-9" style="edgeStyle=orthogonalEdgeStyle;rounded=0;orthogonalLoop=1;jettySize=auto;html=1;exitX=0;exitY=1;exitDx=0;exitDy=0;entryX=1;entryY=1;entryDx=0;entryDy=0;" edge="1" parent="3K_Mu4hXgfkXYXGYBe7w-10" source="3K_Mu4hXgfkXYXGYBe7w-4" target="3K_Mu4hXgfkXYXGYBe7w-7">
          <mxGeometry relative="1" as="geometry" />
        </mxCell>
        <mxCell id="3K_Mu4hXgfkXYXGYBe7w-4" value="需求" style="ellipse;whiteSpace=wrap;html=1;aspect=fixed;fillColor=#dae8fc;strokeColor=#6c8ebf;" vertex="1" parent="3K_Mu4hXgfkXYXGYBe7w-10">
          <mxGeometry x="152.5" width="80" height="80" as="geometry" />
        </mxCell>
        <mxCell id="3K_Mu4hXgfkXYXGYBe7w-8" style="edgeStyle=orthogonalEdgeStyle;rounded=0;orthogonalLoop=1;jettySize=auto;html=1;exitX=1;exitY=0;exitDx=0;exitDy=0;entryX=0;entryY=0;entryDx=0;entryDy=0;" edge="1" parent="3K_Mu4hXgfkXYXGYBe7w-10" source="3K_Mu4hXgfkXYXGYBe7w-7" target="3K_Mu4hXgfkXYXGYBe7w-4">
          <mxGeometry relative="1" as="geometry" />
        </mxCell>
        <mxCell id="3K_Mu4hXgfkXYXGYBe7w-7" value="产品" style="ellipse;whiteSpace=wrap;html=1;aspect=fixed;fillColor=#ffe6cc;strokeColor=#d79b00;" vertex="1" parent="3K_Mu4hXgfkXYXGYBe7w-10">
          <mxGeometry width="80" height="80" as="geometry" />
        </mxCell>
        <mxCell id="3K_Mu4hXgfkXYXGYBe7w-18" value="销售方法，销售材料" style="text;html=1;align=center;verticalAlign=middle;resizable=0;points=[];autosize=1;strokeColor=none;fillColor=none;" vertex="1" parent="1">
          <mxGeometry x="400" y="-82" width="130" height="30" as="geometry" />
        </mxCell>
        <mxCell id="3K_Mu4hXgfkXYXGYBe7w-19" value="产品规格，需求反馈" style="text;html=1;align=center;verticalAlign=middle;resizable=0;points=[];autosize=1;strokeColor=none;fillColor=none;" vertex="1" parent="1">
          <mxGeometry x="400" y="70" width="130" height="30" as="geometry" />
        </mxCell>
        <mxCell id="3K_Mu4hXgfkXYXGYBe7w-20" value="可提供有价格竞争力的产品清单&lt;div&gt;可提供一站式解决方案服务清单&lt;/div&gt;&lt;div&gt;可提供原产地产品的OEM服务&lt;/div&gt;&lt;div&gt;可提供灵活的本地仓服务&lt;/div&gt;&lt;div&gt;&lt;br&gt;&lt;/div&gt;" style="text;html=1;align=center;verticalAlign=middle;resizable=0;points=[];autosize=1;strokeColor=none;fillColor=none;" vertex="1" parent="1">
          <mxGeometry x="515" y="-120" width="190" height="90" as="geometry" />
        </mxCell>
        <mxCell id="3K_Mu4hXgfkXYXGYBe7w-21" value="产品的技术规格&lt;div&gt;产品的认证&lt;br&gt;&lt;div&gt;样品&lt;/div&gt;&lt;div&gt;产品的功能&lt;/div&gt;&lt;div&gt;产品的性能&lt;/div&gt;&lt;div&gt;试点&lt;/div&gt;&lt;div&gt;&lt;br&gt;&lt;/div&gt;&lt;div&gt;&lt;br&gt;&lt;/div&gt;&lt;/div&gt;" style="text;html=1;align=center;verticalAlign=middle;resizable=0;points=[];autosize=1;strokeColor=none;fillColor=none;" vertex="1" parent="1">
          <mxGeometry x="530" y="70" width="110" height="130" as="geometry" />
        </mxCell>
        <mxCell id="3K_Mu4hXgfkXYXGYBe7w-45" value="客户群体" style="swimlane;childLayout=stackLayout;resizeParent=1;resizeParentMax=0;horizontal=1;startSize=20;horizontalStack=0;html=1;" vertex="1" parent="1">
          <mxGeometry x="950" y="-150" width="480" height="380" as="geometry" />
        </mxCell>
        <mxCell id="3K_Mu4hXgfkXYXGYBe7w-46" value="代理" style="swimlane;startSize=20;horizontal=0;html=1;" vertex="1" parent="3K_Mu4hXgfkXYXGYBe7w-45">
          <mxGeometry y="20" width="480" height="120" as="geometry" />
        </mxCell>
        <mxCell id="3K_Mu4hXgfkXYXGYBe7w-47" value="采购" style="swimlane;startSize=20;horizontal=0;html=1;" vertex="1" parent="3K_Mu4hXgfkXYXGYBe7w-45">
          <mxGeometry y="140" width="480" height="120" as="geometry" />
        </mxCell>
        <mxCell id="3K_Mu4hXgfkXYXGYBe7w-48" value="商机" style="swimlane;startSize=20;horizontal=0;html=1;" vertex="1" parent="3K_Mu4hXgfkXYXGYBe7w-45">
          <mxGeometry y="260" width="480" height="120" as="geometry" />
        </mxCell>
      </root>
    </mxGraphModel>
  </diagram>
</mxfile>
